<svg width="192" height="193" viewBox="0 0 192 193" fill="none" xmlns="http://www.w3.org/2000/svg">
<path d="M32.2 138.611H41.45V55.3605H32.2V25.0205H117.115C132.532 25.0205 144.557 28.1655 153.19 34.4555C161.823 40.7455 166.14 49.7489 166.14 61.4655C166.14 68.7422 164.413 74.9089 160.96 79.9655C157.507 84.8989 153.437 88.6605 148.75 91.2505C144.187 93.7172 139.747 95.3822 135.43 96.2455V98.0955C144.187 98.9589 152.08 101.734 159.11 106.421C166.14 111.107 169.655 119.494 169.655 131.581C169.655 144.531 164.783 154.027 155.04 160.071C145.297 165.991 132.655 168.951 117.115 168.951H32.2V138.611ZM103.24 85.7005C106.817 85.7005 109.468 84.7755 111.195 82.9255C113.045 80.9522 113.97 77.9305 113.97 73.8605V67.2005C113.97 63.1305 113.045 60.1705 111.195 58.3205C109.468 56.3472 106.817 55.3605 103.24 55.3605H93.25V85.7005H103.24ZM104.535 138.611C108.112 138.611 110.763 137.686 112.49 135.836C114.34 133.862 115.265 130.841 115.265 126.771V118.631C115.265 114.561 114.34 111.601 112.49 109.751C110.763 107.777 108.112 106.791 104.535 106.791H93.25V138.611H104.535Z" fill="url(#paint0_linear_102_24)"/>
<defs>
<linearGradient id="paint0_linear_102_24" x1="99.5625" y1="22.9505" x2="99.5625" y2="185.554" gradientUnits="userSpaceOnUse">
<stop stop-color="#D97706"/>
<stop offset="1" stop-color="#E42626"/>
</linearGradient>
</defs>
</svg>
