<svg width="512" height="512" viewBox="0 0 512 512" fill="none" xmlns="http://www.w3.org/2000/svg">
<path d="M85.8667 367.714H110.533V146.863H85.8667V66.3756H312.307C353.419 66.3756 385.485 74.7189 408.507 91.4053C431.528 108.092 443.04 131.976 443.04 163.059C443.04 182.363 438.435 198.722 429.227 212.136C420.019 225.224 409.165 235.203 396.667 242.074C384.499 248.618 372.659 253.035 361.147 255.325V260.233C384.499 262.523 405.547 269.885 424.293 282.319C443.04 294.75 452.413 317 452.413 349.065C452.413 383.419 439.421 408.611 413.44 424.644C387.459 440.349 353.747 448.202 312.307 448.202H85.8667V367.714ZM275.307 227.351C284.845 227.351 291.915 224.897 296.52 219.989C301.453 214.754 303.92 206.738 303.92 195.941V178.273C303.92 167.476 301.453 159.623 296.52 154.716C291.915 149.481 284.845 146.863 275.307 146.863H248.667V227.351H275.307ZM278.76 367.714C288.299 367.714 295.368 365.26 299.973 360.352C304.907 355.116 307.373 347.102 307.373 336.304V314.71C307.373 303.913 304.907 296.061 299.973 291.153C295.368 285.916 288.299 283.3 278.76 283.3H248.667V367.714H278.76Z" fill="url(#paint0_linear_2_6)"/>
<defs>
<linearGradient id="paint0_linear_2_6" x1="265.5" y1="60.8842" x2="265.5" y2="492.247" gradientUnits="userSpaceOnUse">
<stop stop-color="#D97706"/>
<stop offset="1" stop-color="#E42626"/>
</linearGradient>
</defs>
</svg>
